#!OML:ASF X:\für Bonn\!DataBase\2005_08_10_Bjorn_Final\c3d\bjorn.ASF
:FULLY-SPECIFIED
:DEGREES
93
root 24.234 18.7729 -1.48413 10.8166 -78.5222 -346.399
lowerback 38.4356 1.53454 8.7244
upperback 23.7878 1.1175 1.74246
thorax 7.99227 0.43048 -3.0493
lowerneck 4.07497 -4.84115 2.95431
upperneck -11.3327 -6.29779 1.22102
head -4.53465 -3.37113 0.227957
rclavicle 3.97569e-014 -1.31198e-014
rhumerus 45.1453 2.87504 -62.3431
rradius 23.2383
rwrist -12.7446
rhand -11.5962 10.7469
rfingers 7.12502
rthumb 14.4461 -18.7303
lclavicle 3.97569e-014 -1.31198e-014
lhumerus 44.1694 -22.7498 70.7297
lradius 21.3801
lwrist -18.2519
lhand -26.4104 -9.07951
lfingers 7.12502
lthumb 0.149415 20.9002
rfemur -56.8983 -13.4668 21.2709
rtibia 43.0515
rfoot -4.0449 16.1824
rtoes 2.44513
lfemur -52.5078 12.6017 -21.7946
ltibia 40.9611
lfoot -5.61594 2.53469
ltoes -19.6967
94
root 24.2441 18.7332 -1.45915 10.6483 -78.2618 -345.449
lowerback 38.8845 1.3943 8.81098
upperback 23.7062 1.03109 1.71808
thorax 7.75801 0.398853 -3.0899
lowerneck 4.17031 -4.864 3.05801
upperneck -11.6639 -6.32253 1.21052
head -4.68075 -3.3945 0.2189
rclavicle -4.77083e-015 7.7526e-015
rhumerus 45.9617 2.63667 -61.9103
rradius 22.8165
rwrist -12.8135
rhand -11.6606 10.7409
rfingers 7.12502
rthumb 14.384 -18.7407
lclavicle -4.77083e-015 7.7526e-015
lhumerus 45.2771 -22.586 70.7297
lradius 20.8685
lwrist -18.5201
lhand -26.7101 -9.17636
lfingers 7.12502
lthumb -0.140134 20.8033
rfemur -58.1494 -13.6283 21.1097
rtibia 43.6903
rfoot -4.21461 16.061
rtoes 2.32718
lfemur -53.7901 12.7202 -22.5363
ltibia 41.4503
lfoot -5.68238 1.90723
ltoes -19.5287
95
root 24.2522 18.6943 -1.4355 10.3902 -77.9475 -344.418
lowerback 39.3131 1.23331 8.922
upperback 23.6194 0.932104 1.68096
thorax 7.52676 0.366811 -3.15223
lowerneck 4.26564 -4.89083 3.28592
upperneck -11.9607 -6.3474 1.14318
head -4.82283 -3.41981 0.168555
rclavicle 9.54166e-015 -1.53064e-014
rhumerus 46.7765 2.33175 -61.5708
rradius 22.362
rwrist -12.8113
rhand -11.7484 10.7184
rfingers 7.12502
rthumb 14.2994 -18.7693
lclavicle 9.54166e-015 -1.53064e-014
lhumerus 46.4284 -22.4856 70.6906
lradius 20.3169
lwrist -18.6518
lhand -26.9349 -9.25422
lfingers 7.12502
lthumb -0.357231 20.7252
rfemur -59.3678 -13.8266 20.9119
rtibia 44.3318
rfoot -4.38249 15.9272
rtoes 2.42267
lfemur -55.0699 12.8276 -23.3366
ltibia 41.9526
lfoot -5.76505 1.24567
ltoes -19.3819
96
root 24.2587 18.6547 -1.41338 10.232 -77.6338 -343.53
lowerback 39.7512 1.08717 9.00569
upperback 23.5347 0.843167 1.684
thorax 7.29621 0.331051 -3.15929
lowerneck 4.37737 -4.91554 3.43146
upperneck -12.6499 -6.36779 1.12187
head -4.58686 -3.44694 0.131216
rclavicle 1.59028e-014 -3.93594e-014
rhumerus 47.616 1.99055 -61.2994
rradius 21.8625
rwrist -12.6987
rhand -11.815 10.6927
rfingers 7.12502
rthumb 14.2352 -18.7994
lclavicle 1.59028e-014 -3.93594e-014
lhumerus 47.5631 -22.3514 70.7182
lradius 19.7602
lwrist -18.7685
lhand -27.1506 -9.3359
lfingers 7.12502
lthumb -0.565548 20.6431
rfemur -60.545 -14.058 20.7687
rtibia 44.984
rfoot -4.5932 15.8121
rtoes 2.17772
lfemur -56.3018 12.9742 -24.1273
ltibia 42.4693
lfoot -5.83435 0.534313
ltoes -19.2064
97
root 24.2643 18.6129 -1.392 10.2099 -77.3116 -342.805
lowerback 40.1929 0.940266 9.11338
upperback 23.4516 0.761282 1.70998
thorax 7.07167 0.298627 -3.15483
lowerneck 4.5166 -4.93987 3.57562
upperneck -12.9809 -6.39507 1.05039
head -4.71975 -3.47006 0.0983678
rclavicle 1.74931e-014 4.90998e-014
rhumerus 48.5032 1.53622 -61.1691
rradius 21.2712
rwrist -12.3936
rhand -11.823 10.7487
rfingers 7.12502
rthumb 14.2275 -18.744
lclavicle 1.74931e-014 4.90998e-014
lhumerus 48.6378 -22.1855 70.8644
lradius 19.2332
lwrist -18.9972
lhand -27.2571 -9.31715
lfingers 7.12502
lthumb -0.668412 20.6616
rfemur -61.69 -14.2819 20.6502
rtibia 45.6417
rfoot -4.80714 15.688
rtoes 2.15519
lfemur -57.5141 13.0889 -24.8654
ltibia 43.0008
lfoot -5.92394 -0.175462
ltoes -18.6463
98
root 24.2686 18.5715 -1.3712 10.2998 -77.0086 -342.21
lowerback 40.6021 0.808009 9.1877
upperback 23.3911 0.679303 1.75612
thorax 6.88278 0.260535 -3.11189
lowerneck 4.64389 -4.94525 3.701
upperneck -13.3236 -6.39673 0.996953
head -4.853 -3.48118 0.0723769
rclavicle 3.02153e-014 3.4191e-014
rhumerus 49.4618 1.10025 -61.0941
rradius 20.6631
rwrist -12.0854
rhand -11.9186 10.8049
rfingers 7.12502
rthumb 14.1355 -18.6942
lclavicle 3.02153e-014 3.4191e-014
lhumerus 49.6392 -21.9226 71.1327
lradius 18.7388
lwrist -19.2854
lhand -27.3733 -9.29504
lfingers 7.12502
lthumb -0.780593 20.6833
rfemur -62.8267 -14.5155 20.5791
rtibia 46.3105
rfoot -5.0039 15.6087
rtoes 2.21961
lfemur -58.7054 13.1985 -25.5714
ltibia 43.557
lfoot -6.00219 -0.838081
ltoes -18.2335
99
root 24.2729 18.5282 -1.35091 10.309 -76.7196 -341.555
lowerback 40.984 0.690841 9.24441
upperback 23.3501 0.604371 1.8057
thorax 6.72601 0.224844 -3.05829
lowerneck 4.74058 -4.95583 3.81769
upperneck -13.6382 -6.40833 0.939436
head -4.97267 -3.49636 0.0456828
rclavicle -1.90833e-014 -3.97569e-015
rhumerus 50.4084 0.668239 -60.9752
rradius 20.0984
rwrist -11.8001
rhand -11.9307 10.8567
rfingers 7.12502
rthumb 14.1237 -18.6432
lclavicle -1.90833e-014 -3.97569e-015
lhumerus 50.6287 -21.6926 71.3724
lradius 18.3287
lwrist -19.4757
lhand -27.3335 -9.17584
lfingers 7.12502
lthumb -0.742188 20.8026
rfemur -63.9454 -14.7385 20.481
rtibia 46.9893
rfoot -5.19231 15.5119
rtoes 2.13029
lfemur -59.8815 13.2858 -26.2937
ltibia 44.1355
lfoot -6.11122 -1.48383
ltoes -17.8563
